#!OML:ASF F:\twosubjects\two\wednesday\Session 1\rory1.ASF
:FULLY-SPECIFIED
:DEGREES
116
root 17.3686 18.5059 4.8232 -172.364 2.832 184.949
lowerback 1.73239 2.46372 3.13812
upperback 0.86814 3.36769 0.594964
thorax 0.064434 1.70759 -1.19599
lowerneck -12.9624 -2.34799 -3.04825
upperneck 9.79093 -2.56909 -0.519545
head 5.09624 -1.42026 0.121017
rclavicle -4.82053e-015 -8.54774e-015
rhumerus -30.1464 -8.15593 -81.6027
rradius 35.2902
rwrist 0.658113
rhand -15.7033 33.3231
rfingers 7.12502
rthumb 10.4864 3.60464
lclavicle -4.82053e-015 -8.54774e-015
lhumerus -42.0312 13.0294 79.9447
lradius 24.1275
lwrist -0.989308
lhand -32.1765 8.51717
lfingers 7.12502
lthumb -5.41913 38.4279
rfemur 10.0161 4.79404 29.7381
rtibia 10.3481
rfoot -8.31229 0.556282
rtoes 3.63872
lfemur -33.7807 -8.5358 -10.4496
ltibia 14.864
lfoot -10.9409 11.3449
ltoes -17.9906
117
root 17.3581 18.4854 4.63838 -172.435 2.92617 184.629
lowerback 1.80012 2.32942 2.79763
upperback 0.954987 3.18278 0.528759
thorax 0.0925833 1.61485 -1.07311
lowerneck -13.347 -2.26277 -3.3398
upperneck 9.81711 -2.40884 -0.307178
head 5.17234 -1.33759 0.242916
rclavicle -1.95803e-014 3.77691e-015
rhumerus -29.9958 -8.07369 -81.6875
rradius 35.2169
rwrist 0.762836
rhand -15.4826 33.1388
rfingers 7.12502
rthumb 10.6993 3.43126
lclavicle -1.95803e-014 3.77691e-015
lhumerus -41.8126 13.5325 79.8595
lradius 24.1136
lwrist -0.748769
lhand -29.0791 14.3431
lfingers 7.12502
lthumb -2.42807 44.309
rfemur 10.4712 4.84455 29.2746
rtibia 10.7986
rfoot -8.61434 0.508723
rtoes -0.551899
lfemur -33.6183 -8.1889 -11.2566
ltibia 15.5105
lfoot -10.4707 10.9487
ltoes -20.4538
118
root 17.3521 18.467 4.45415 -172.474 2.88411 184.977
lowerback 1.89201 2.26895 3.08513
upperback 0.932009 3.11434 0.615446
thorax 0.0254753 1.58181 -1.14847
lowerneck -13.2888 -2.24705 -3.33769
upperneck 9.6493 -2.39214 -0.293089
head 5.11014 -1.32617 0.250077
rclavicle -2.03754e-015 3.18055e-015
rhumerus -30.1598 -8.26447 -81.7102
rradius 35.0825
rwrist 0.762516
rhand -15.4915 32.9684
rfingers 7.12502
rthumb 10.6907 3.26038
lclavicle -2.03754e-015 3.18055e-015
lhumerus -41.6838 13.4903 79.9042
lradius 24.1562
lwrist -0.299666
lhand -25.4223 21.3566
lfingers 7.12502
lthumb 1.10368 51.3335
rfemur 10.6541 4.92894 29.588
rtibia 11.6179
rfoot -8.60484 0.571312
rtoes -1.75008
lfemur -33.3748 -7.66479 -11.3376
ltibia 16.19
lfoot -9.81495 9.82121
ltoes -20.0557
119
root 17.3485 18.4497 4.2696 -172.467 2.91221 185.422
lowerback 1.89506 2.31956 3.47431
upperback 0.895214 3.19263 0.675187
thorax 0.00732475 1.62272 -1.30587
lowerneck -13.2527 -2.29669 -3.2545
upperneck 9.59308 -2.48087 -0.236323
head 5.08743 -1.36097 0.247922
rclavicle -3.38928e-014 -6.95746e-015
rhumerus -30.4992 -8.74336 -81.6056
rradius 34.7413
rwrist 1.06667
rhand -15.7322 33.5708
rfingers 7.12502
rthumb 10.4585 3.85098
lclavicle -3.38928e-014 -6.95746e-015
lhumerus -41.4967 13.2902 79.9474
lradius 24.1448
lwrist -0.426042
lhand -22.8087 24.7414
lfingers 7.12502
lthumb 3.62781 54.6903
rfemur 10.9489 5.15582 30.0178
rtibia 12.1629
rfoot -8.14346 0.954788
rtoes 0.180488
lfemur -33.261 -7.12709 -11.2848
ltibia 17.1505
lfoot -9.07737 8.8842
ltoes -19.6772
120
root 17.3397 18.4289 4.07623 -172.39 3.0456 185.586
lowerback 1.64103 2.41988 3.59575
upperback 0.92003 3.31577 0.650273
thorax 0.189341 1.68776 -1.38702
lowerneck -13.359 -2.35562 -3.27985
upperneck 9.58241 -2.57495 -0.00936739
head 5.10609 -1.39026 0.314059
rclavicle 1.38155e-014 1.05356e-014
rhumerus -30.8034 -9.16826 -81.4611
rradius 34.5669
rwrist 1.18314
rhand -15.7773 33.8902
rfingers 7.12502
rthumb 10.415 4.16815
lclavicle 1.38155e-014 1.05356e-014
lhumerus -41.2398 13.0963 80.0794
lradius 23.9913
lwrist -1.10367
lhand -22.1475 23.8651
lfingers 7.12502
lthumb 4.26635 53.8021
rfemur 11.3766 5.31219 30.0858
rtibia 12.405
rfoot -7.75739 1.37608
rtoes -0.942315
lfemur -33.3516 -6.65574 -11.5455
ltibia 18.2974
lfoot -8.13289 8.24318
ltoes -19.2023
121
root 17.3323 18.4113 3.87473 -172.335 3.1323 185.358
lowerback 1.3454 2.48556 3.20482
upperback 0.890274 3.38024 0.574329
thorax 0.309428 1.71727 -1.23423
lowerneck -13.2696 -2.36449 -3.1819
upperneck 9.56966 -2.61052 0.0149581
head 5.08683 -1.40185 0.304119
rclavicle 4.47266e-014 6.95746e-015
rhumerus -31.2724 -9.44868 -81.3713
rradius 34.6058
rwrist 1.11774
rhand -15.7382 33.7338
rfingers 7.12502
rthumb 10.4527 4.01369
lclavicle 4.47266e-014 6.95746e-015
lhumerus -41.0838 12.9499 80.2024
lradius 23.6288
lwrist -2.06798
lhand -22.4762 21.7987
lfingers 7.12502
lthumb 3.94891 51.7419
rfemur 11.8478 5.45503 29.7783
rtibia 12.6615
rfoot -7.33725 1.65756
rtoes -3.51368
lfemur -33.4609 -6.42953 -12.1499
ltibia 19.3341
lfoot -6.70954 7.85484
ltoes -17.4657
122
root 17.3215 18.4065 3.67676 -172.327 3.024 185.077
lowerback 1.30701 2.46394 2.90965
upperback 0.744172 3.34226 0.46227
thorax 0.169217 1.69078 -1.18713
lowerneck -13.232 -2.35055 -3.03988
upperneck 9.82048 -2.60975 -0.0729014
head 5.15588 -1.40515 0.252733
rclavicle 1.09829e-014 4.77083e-015
rhumerus -31.8911 -9.88374 -81.216
rradius 34.447
rwrist 1.36204
rhand -15.586 34.0998
rfingers 7.12502
rthumb 10.5995 4.38712
lclavicle 1.09829e-014 4.77083e-015
lhumerus -40.9975 13.0688 80.0406
lradius 23.3706
lwrist -2.193
lhand -22.8858 21.9353
lfingers 7.12502
lthumb 3.55338 51.8854
rfemur 12.3319 5.68665 29.4967
rtibia 12.8901
rfoot -6.6333 1.7686
rtoes -5.97025
lfemur -33.6311 -6.81073 -12.5584
ltibia 20.2814
lfoot -5.34432 7.89809
ltoes -17.1269
123
root 17.3087 18.4124 3.48467 -172.393 2.98478 184.841
lowerback 1.41138 2.46557 2.73331
upperback 0.670143 3.34242 0.322433
thorax 0.033248 1.68618 -1.23931
lowerneck -13.343 -2.39418 -3.02907
upperneck 9.95425 -2.6826 0.0734852
head 5.21883 -1.43018 0.28858
rclavicle 1.08835e-014 9.54166e-015
rhumerus -32.3388 -10.4006 -81.0592
rradius 34.2398
rwrist 1.73087
rhand -15.5506 34.1732
rfingers 7.12502
rthumb 10.6336 4.46223
lclavicle 1.08835e-014 9.54166e-015
lhumerus -40.7338 13.3319 79.7855
lradius 23.271
lwrist -1.73088
lhand -23.4465 23.8447
lfingers 7.12502
lthumb 3.01193 53.8032
rfemur 12.7511 5.95709 29.2406
rtibia 13.2513
rfoot -5.79723 1.99674
rtoes -7.10301
lfemur -33.7434 -7.59116 -12.694
ltibia 21.1529
lfoot -4.65555 7.79463
ltoes -17.3279
124
root 17.3029 18.419 3.28999 -172.538 3.13592 184.44
lowerback 1.49654 2.49303 2.18277
upperback 0.718891 3.37108 0.225093
thorax 0.0107368 1.69843 -1.03575
lowerneck -13.41 -2.47673 -3.17783
upperneck 9.75585 -2.78769 0.295531
head 5.17466 -1.46843 0.373634
rclavicle -2.38542e-015 -5.1684e-015
rhumerus -32.5262 -10.7289 -80.9195
rradius 33.9489
rwrist 1.91978
rhand -15.5664 33.58
rfingers 7.12502
rthumb 10.6184 3.86832
lclavicle -2.38542e-015 -5.1684e-015
lhumerus -40.431 13.3404 79.8951
lradius 23.1813
lwrist -1.87645
lhand -23.3537 24.9053
lfingers 7.12502
lthumb 3.10153 54.8625
rfemur 12.9118 6.19647 28.778
rtibia 14.2335
rfoot -5.16007 2.24487
rtoes -8.56509
lfemur -33.5917 -8.12101 -13.0714
ltibia 21.8476
lfoot -4.20845 6.98765
ltoes -16.5355
125
root 17.2993 18.4145 3.09428 -172.622 3.1712 183.968
lowerback 1.52044 2.4998 1.44894
upperback 0.743288 3.36879 0.215159
thorax -0.0195575 1.69454 -0.638551
lowerneck -13.6184 -2.56899 -3.34013
upperneck 9.83289 -2.87152 0.274504
head 5.23675 -1.51759 0.382932
rclavicle 5.01931e-015 4.37326e-015
rhumerus -32.8051 -11.0652 -80.5611
rradius 33.564
rwrist 2.07434
rhand -15.8679 32.7453
rfingers 7.12502
rthumb 10.3276 3.01885
lclavicle 5.01931e-015 4.37326e-015
lhumerus -40.1924 13.3213 80.2034
lradius 22.9643
lwrist -3.00244
lhand -22.6806 24.9551
lfingers 7.12502
lthumb 3.75158 54.9018
rfemur 12.647 6.40904 28.2721
rtibia 15.856
rfoot -4.54891 2.47721
rtoes -10.6175
lfemur -33.3815 -8.44634 -13.6158
ltibia 22.437
lfoot -3.71102 5.99722
ltoes -14.1092
126
root 17.2915 18.4049 2.89713 -172.705 3.0002 183.305
lowerback 1.45048 2.47504 0.731775
upperback 0.742247 3.32167 0.0128145
thorax -0.0112898 1.66806 -0.442309
lowerneck -13.6518 -2.62492 -3.21233
upperneck 9.82399 -2.96001 0.200379
head 5.23786 -1.56084 0.331327
rclavicle -5.76476e-015 -1.27222e-014
rhumerus -33.3739 -11.7573 -80.2354
rradius 33.1469
rwrist 2.53719
rhand -16.3417 32.899
rfingers 7.12502
rthumb 9.87051 3.15039
lclavicle -5.76476e-015 -1.27222e-014
lhumerus -39.9134 13.3808 80.179
lradius 22.6649
lwrist -3.9139
lhand -22.8023 24.9204
lfingers 7.12502
lthumb 3.63404 54.8692
rfemur 12.1397 6.39567 27.5442
rtibia 17.8902
rfoot -3.86623 2.82515
rtoes -12.7878
lfemur -33.1163 -8.81041 -14.4537
ltibia 23.0408
lfoot -3.06794 5.31661
ltoes -12.7706
127
root 17.2881 18.3988 2.70122 -172.879 2.7276 182.603
lowerback 1.42859 2.35461 0.104932
upperback 0.766884 3.15278 -0.324254
thorax 0.00916713 1.58266 -0.43351
lowerneck -13.3023 -2.62438 -3.16456
upperneck 9.35093 -3.02352 0.595656
head 5.03864 -1.55771 0.449563
rclavicle 9.88954e-015 -3.57812e-015
rhumerus -33.9103 -12.5713 -80.1548
rradius 32.6161
rwrist 3.1754
rhand -16.1152 33.1552
rfingers 7.12502
rthumb 10.089 3.41708
lclavicle 9.88954e-015 -3.57812e-015
lhumerus -39.6113 13.435 79.819
lradius 22.4557
lwrist -3.55085
lhand -23.9445 23.6018
lfingers 7.12502
lthumb 2.53097 53.5665
rfemur 11.5631 6.23996 26.806
rtibia 20.1831
rfoot -3.0119 3.14486
rtoes -13.5258
lfemur -32.6854 -9.09539 -15.4247
ltibia 23.6729
lfoot -2.41666 4.67942
ltoes -14.0977
128
root 17.2948 18.4014 2.51467 -172.885 2.55706 182.111
lowerback 1.29448 2.1972 -0.636227
upperback 0.836966 2.93765 -0.385437
thorax 0.120236 1.4736 -0.0727571
lowerneck -13.2669 -2.60708 -3.52409
upperneck 9.00647 -2.99166 1.10671
head 4.93826 -1.51702 0.671763
rclavicle 1.05356e-014 -7.15625e-015
rhumerus -34.1157 -13.0146 -79.98
rradius 32.2232
rwrist 3.65587
rhand -15.8845 32.6731
rfingers 7.12502
rthumb 10.3116 2.94592
lclavicle 1.05356e-014 -7.15625e-015
lhumerus -39.1388 14.1954 79.462
lradius 22.3076
lwrist -2.9041
lhand -24.843 21.9624
lfingers 7.12502
lthumb 1.66316 51.9357
rfemur 10.6296 6.23262 26.2833
rtibia 22.5627
rfoot -1.75015 3.46551
rtoes -11.7358
lfemur -32.4442 -9.17163 -16.1351
ltibia 24.3236
lfoot -1.92524 4.21325
ltoes -16.5381
129
root 17.2971 18.4056 2.33204 -172.845 2.38594 181.831
lowerback 1.13795 2.11902 -1.12521
upperback 0.863052 2.83165 -0.375663
thorax 0.210892 1.4185 0.218039
lowerneck -13.2895 -2.66947 -3.70952
upperneck 8.93573 -3.05599 1.24306
head 4.92648 -1.54522 0.738798
rclavicle 3.47873e-016 5.56597e-015
rhumerus -34.4635 -13.5214 -79.6819
rradius 31.9755
rwrist 3.98729
rhand -16.4181 32.6745
rfingers 7.12502
rthumb 9.79682 2.9224
lclavicle 3.47873e-016 5.56597e-015
lhumerus -38.6815 14.7427 79.3845
lradius 22.1726
lwrist -2.73676
lhand -24.3511 22.3263
lfingers 7.12502
lthumb 2.13831 52.2954
rfemur 9.51776 6.05044 25.8719
rtibia 24.9564
rfoot -0.311734 3.84231
rtoes -11.553
lfemur -32.3128 -9.18036 -16.6375
ltibia 25.0036
lfoot -1.53747 4.00675
ltoes -19.1269
130
root 17.2907 18.3996 2.14333 -173.074 2.23561 181.742
lowerback 1.24487 2.20719 -1.12431
upperback 0.803913 2.94794 -0.519053
thorax 0.0967426 1.47807 0.0637763
lowerneck -12.8426 -2.83524 -3.57397
upperneck 8.96636 -3.32682 1.28844
head 4.86783 -1.67222 0.714367
rclavicle 1.02374e-014 -3.97569e-015
rhumerus -35.3044 -14.4145 -79.3558
rradius 31.6196
rwrist 4.21067
rhand -16.5873 32.6289
rfingers 7.12502
rthumb 9.63355 2.8692
lclavicle 1.02374e-014 -3.97569e-015
lhumerus -38.3747 14.07 79.5647
lradius 21.9545
lwrist -2.84841
lhand -24.243 23.1462
lfingers 7.12502
lthumb 2.24267 53.1142
rfemur 8.71235 5.70277 25.6023
rtibia 27.321
rfoot 1.22191 4.31355
rtoes -13.5665
lfemur -31.827 -9.12715 -17.0134
ltibia 25.6849
lfoot -1.32619 3.62332
ltoes -18.898
